<?xml version="1.0" encoding="UTF-8" standalone="no"?><!DOCTYPE svg PUBLIC "-//W3C//DTD SVG 1.1//EN" "http://www.w3.org/Graphics/SVG/1.1/DTD/svg11.dtd"><svg width="100%" height="100%" viewBox="0 0 612 633" version="1.1" xmlns="http://www.w3.org/2000/svg" xmlns:xlink="http://www.w3.org/1999/xlink" xml:space="preserve" xmlns:serif="http://www.serif.com/" style="fill-rule:evenodd;clip-rule:evenodd;stroke-linecap:round;stroke-linejoin:round;"><g><clipPath id="_clip1"><circle cx="305.633" cy="316.129" r="305.633"/></clipPath><g clip-path="url(#_clip1)"><circle cx="305.633" cy="316.129" r="305.633" style="fill:url(#_Linear2);"/><path d="M148.497,274.797l-10.703,37.464l-10.702,-37.464c-5.617,-19.653 -21.023,-35.059 -40.676,-40.676l-37.477,-10.716l37.464,-10.702c19.652,-5.617 35.059,-21.024 40.676,-40.676l10.715,-37.478l10.703,37.465c5.617,19.652 21.023,35.058 40.676,40.676l37.477,10.715l-37.464,10.702c-19.652,5.618 -35.059,21.024 -40.676,40.677l-0.013,0.013Zm111.181,-94.635l-3.409,13.625l-3.409,-13.625c-3.971,-15.895 -16.425,-28.353 -32.318,-32.33l-13.637,-3.41l13.637,-3.409c15.893,-3.978 28.347,-16.436 32.318,-32.331l3.409,-13.624l3.409,13.624c3.974,15.899 16.433,28.358 32.331,32.331l13.624,3.409l-13.624,3.41c-15.898,3.973 -28.357,16.432 -32.331,32.33Zm-17.968,156.018l-5.187,15.573l-5.186,-15.573c-2.946,-8.838 -9.895,-15.786 -18.732,-18.732l-15.573,-5.187l15.573,-5.186c8.837,-2.946 15.786,-9.895 18.732,-18.733l5.186,-15.572l5.187,15.572c2.946,8.838 9.895,15.787 18.732,18.733l15.573,5.186l-15.573,5.187c-8.837,2.946 -15.786,9.894 -18.732,18.732Z" style="fill:none;fill-rule:nonzero;stroke:#fff;stroke-opacity:0.22;stroke-width:19.75px;"/><path d="M335.68,224.185l0,130.044c0,13.575 -5.398,26.609 -14.998,36.209l-93.106,93.106m108.104,-259.359c-5.712,0.524 -11.402,1.138 -17.069,1.866m17.069,-1.866c34.065,-3.167 68.35,-3.167 102.414,0m0,0l0,130.044c0,13.587 5.394,26.627 14.998,36.209l111.313,111.313m-126.311,-277.566c5.713,0.524 11.403,1.138 17.07,1.866m109.241,275.7l-35.731,8.944c-47.622,11.768 -97.915,6.174 -141.787,-15.772c-43.872,-21.945 -94.164,-27.54 -141.787,-15.772l-17.524,4.393m336.829,18.207l31.908,31.908c28.039,28.038 14.793,75.513 -24.283,82.181c-61.163,10.427 -143.682,27.412 -205.727,27.39c-63.11,0 -120.052,-5.572 -164.558,-27.39c-35.615,-17.459 -52.345,-54.143 -24.284,-82.159l50.115,-50.137" style="fill:none;fill-rule:nonzero;stroke:#fff;stroke-width:27.81px;"/></g></g><defs><linearGradient id="_Linear2" x1="0" y1="0" x2="1" y2="0" gradientUnits="userSpaceOnUse" gradientTransform="matrix(-575.829,-994.938,994.938,-575.829,289.718,351.753)"><stop offset="0" style="stop-color:#419794;stop-opacity:1"/><stop offset="1" style="stop-color:#65165f;stop-opacity:1"/></linearGradient></defs></svg>